# xmcd CD database file
#
# Track frame offsets:
#	150
#	38139
#	63373
#	69047
#	98587
#	126516
#	145064
#	172830
#	175074
#	201995
#	225803
#	250654
#	251435
#	297926
#
# Disc length: 4263 seconds
#
# Revision: 1
# Processed by: cddbd v1.5.2PL0 Copyright (c) Steve Scherf et al.
# Submitted via: CDex 1.75
#
DISCID=b410a50e
DTITLE=Smoke Wagon Blues Band - Live In Hamilton
DYEAR=2013
DGENRE=Blues
TTITLE0=Ain't No When She's Gone
TTITLE1=Hen House Hopping
TTITLE2=Intro Josephine
TTITLE3=Josephine
TTITLE4=Wrong Side Girl
TTITLE5=I Can't Change
TTITLE6=Fine Furred Momma
TTITLE7=Intro Barton Street
TTITLE8=Barton Street Blues
TTITLE9=Smoke Wagon Boogie
TTITLE10=Lonesome Whistle Blues
TTITLE11=Lawyer Intro
TTITLE12=Feeling Of The Witch
TTITLE13=Blow Wind Blow
EXTD=YEAR: 2013
EXTT0=
EXTT1=
EXTT2=
EXTT3=
EXTT4=
EXTT5=
EXTT6=
EXTT7=
EXTT8=
EXTT9=
EXTT10=
EXTT11=
EXTT12=
EXTT13=
PLAYORDER=
